%TF.GenerationSoftware,KiCad,Pcbnew,4.0.5+dfsg1-4*%
%TF.CreationDate,2018-04-07T15:20:27+10:00*%
%TF.ProjectId,mia,6D69612E6B696361645F706362000000,rev?*%
%TF.FileFunction,Soldermask,Bot*%
%FSLAX46Y46*%
G04 Gerber Fmt 4.6, Leading zero omitted, Abs format (unit mm)*
G04 Created by KiCad (PCBNEW 4.0.5+dfsg1-4) date Sat Apr  7 15:20:27 2018*
%MOMM*%
%LPD*%
G01*
G04 APERTURE LIST*
%ADD10C,0.050000*%
%ADD11C,0.150000*%
%ADD12C,5.800000*%
%ADD13C,2.400000*%
%ADD14R,1.400000X1.400000*%
%ADD15O,1.400000X1.400000*%
%ADD16R,1.000000X1.950000*%
%ADD17R,1.400000X1.650000*%
%ADD18R,1.650000X1.400000*%
%ADD19R,1.100000X1.700000*%
%ADD20R,1.700000X1.100000*%
%ADD21R,2.100000X2.100000*%
%ADD22C,2.100000*%
%ADD23R,1.950000X1.000000*%
%ADD24R,1.500000X1.000000*%
%ADD25C,1.900000*%
%ADD26R,1.960000X1.050000*%
%ADD27R,1.900000X1.900000*%
%ADD28R,3.000000X2.300000*%
%ADD29R,3.900000X3.700000*%
%ADD30R,4.400000X4.400000*%
%ADD31R,1.000000X2.200000*%
%ADD32R,1.600000X2.200000*%
%ADD33C,1.400000*%
%ADD34R,1.400000X3.600000*%
%ADD35R,1.600000X1.600000*%
%ADD36C,1.800000*%
%ADD37O,1.800000X1.800000*%
%ADD38R,1.900000X0.700000*%
%ADD39R,0.700000X1.900000*%
%ADD40R,0.850000X1.000000*%
%ADD41C,5.400000*%
G04 APERTURE END LIST*
D10*
D11*
X241750000Y-60750000D02*
G75*
G03X242750000Y-61750000I1000000J0D01*
G01*
X286750000Y-61750000D02*
G75*
G03X287750000Y-60750000I0J1000000D01*
G01*
X287750000Y-56250000D02*
G75*
G03X286750000Y-55250000I-1000000J0D01*
G01*
X242750000Y-55250000D02*
G75*
G03X241750000Y-56250000I0J-1000000D01*
G01*
X286750000Y-61750000D02*
X242750000Y-61750000D01*
X287750000Y-56250000D02*
X287750000Y-60750000D01*
X242750000Y-55250000D02*
X286750000Y-55250000D01*
X241750000Y-60750000D02*
X241750000Y-56250000D01*
X23812600Y-45243940D02*
G75*
G03X21431340Y-47625200I0J-2381260D01*
G01*
X21431340Y-214313400D02*
G75*
G03X23812600Y-216694660I2381260J0D01*
G01*
X395289160Y-216694660D02*
G75*
G03X397670420Y-214313400I0J2381260D01*
G01*
X397670420Y-47625200D02*
G75*
G03X395289160Y-45243940I-2381260J0D01*
G01*
X21431340Y-214313400D02*
X21431340Y-47625200D01*
X395289160Y-216694660D02*
X23812600Y-216694660D01*
X397670420Y-47625200D02*
X397670420Y-214313400D01*
X23812600Y-45243940D02*
X395289160Y-45243940D01*
D12*
X126206780Y-85725360D03*
D13*
X67627800Y-73661120D03*
X73977800Y-71121120D03*
D14*
X142000000Y-93000000D03*
D15*
X143270000Y-93000000D03*
X144540000Y-93000000D03*
X145810000Y-93000000D03*
X147080000Y-93000000D03*
X148350000Y-93000000D03*
X149620000Y-93000000D03*
X150890000Y-93000000D03*
X152160000Y-93000000D03*
X153430000Y-93000000D03*
X154700000Y-93000000D03*
X155970000Y-93000000D03*
X157240000Y-93000000D03*
X158510000Y-93000000D03*
X159780000Y-93000000D03*
X161050000Y-93000000D03*
X162320000Y-93000000D03*
X163590000Y-93000000D03*
X164860000Y-93000000D03*
X166130000Y-93000000D03*
X167400000Y-93000000D03*
X168670000Y-93000000D03*
X169940000Y-93000000D03*
X171210000Y-93000000D03*
X172480000Y-93000000D03*
X173750000Y-93000000D03*
X175020000Y-93000000D03*
D16*
X188833110Y-59640630D03*
X187563110Y-59640630D03*
X186293110Y-59640630D03*
X185023110Y-59640630D03*
X185023110Y-54240630D03*
X186293110Y-54240630D03*
X187563110Y-54240630D03*
X188833110Y-54240630D03*
D14*
X150428110Y-77540630D03*
X150428110Y-78840630D03*
D13*
X100965440Y-159385680D03*
X107315440Y-156845680D03*
D17*
X227678110Y-69440630D03*
X229678110Y-69440630D03*
X152928110Y-79440630D03*
X154928110Y-79440630D03*
X238428110Y-69440630D03*
X240428110Y-69440630D03*
X213428110Y-71690630D03*
X211428110Y-71690630D03*
X213428110Y-67190630D03*
X211428110Y-67190630D03*
X213428110Y-69440630D03*
X211428110Y-69440630D03*
D18*
X192428110Y-70690630D03*
X192428110Y-68690630D03*
X192428110Y-64190630D03*
X192428110Y-66190630D03*
X168428110Y-56940630D03*
X168428110Y-54940630D03*
D17*
X160928110Y-66440630D03*
X158928110Y-66440630D03*
D18*
X171928110Y-56940630D03*
X171928110Y-54940630D03*
X172178110Y-77440630D03*
X172178110Y-79440630D03*
D17*
X183428110Y-64690630D03*
X181428110Y-64690630D03*
D18*
X170178110Y-77440630D03*
X170178110Y-79440630D03*
D19*
X238478110Y-67190630D03*
X240378110Y-67190630D03*
X238478110Y-71690630D03*
X240378110Y-71690630D03*
D20*
X166178110Y-56890630D03*
X166178110Y-54990630D03*
X177178110Y-54990630D03*
X177178110Y-56890630D03*
X179600000Y-54990630D03*
X179600000Y-56890630D03*
D13*
X381952800Y-73661120D03*
X388302800Y-71121120D03*
X281940300Y-202248620D03*
X288290300Y-199708620D03*
X284321550Y-159386120D03*
X290671550Y-156846120D03*
X200977800Y-102236120D03*
X207327800Y-99696120D03*
X305752800Y-73661120D03*
X312102800Y-71121120D03*
X305752800Y-54611120D03*
X312102800Y-52071120D03*
X286702800Y-121286120D03*
X293052800Y-118746120D03*
X220027800Y-121286120D03*
X226377800Y-118746120D03*
X381952800Y-187961120D03*
X388302800Y-185421120D03*
X381952800Y-159386120D03*
X388302800Y-156846120D03*
X381952800Y-140336120D03*
X388302800Y-137796120D03*
X381952800Y-121286120D03*
X388302800Y-118746120D03*
X381952800Y-102236120D03*
X388302800Y-99696120D03*
X362922800Y-197486120D03*
X369272800Y-194946120D03*
X362902800Y-178436120D03*
X369252800Y-175896120D03*
X362902800Y-159386120D03*
X369252800Y-156846120D03*
X362902800Y-140336120D03*
X369252800Y-137796120D03*
X362902800Y-121286120D03*
X369252800Y-118746120D03*
X362902800Y-102236120D03*
X369252800Y-99696120D03*
X362902800Y-73661120D03*
X369252800Y-71121120D03*
X362902800Y-54611120D03*
X369252800Y-52071120D03*
X343852800Y-197486120D03*
X350202800Y-194946120D03*
X343852800Y-178436120D03*
X350202800Y-175896120D03*
X343852800Y-159386120D03*
X350202800Y-156846120D03*
X343852800Y-140336120D03*
X350202800Y-137796120D03*
X343852800Y-121286120D03*
X350202800Y-118746120D03*
X343852800Y-102236120D03*
X350202800Y-99696120D03*
X343852800Y-73661120D03*
X350202800Y-71121120D03*
X343852800Y-54611120D03*
X350202800Y-52071120D03*
X320040300Y-202248620D03*
X326390300Y-199708620D03*
X324802800Y-178436120D03*
X331152800Y-175896120D03*
X324802800Y-159386120D03*
X331152800Y-156846120D03*
X324802800Y-140336120D03*
X331152800Y-137796120D03*
X324802800Y-102236120D03*
X331152800Y-99696120D03*
X324802800Y-73661120D03*
X331152800Y-71121120D03*
X324802800Y-54611120D03*
X331152800Y-52071120D03*
X300990300Y-202248620D03*
X307340300Y-199708620D03*
X300990300Y-183198620D03*
X307340300Y-180658620D03*
X296215040Y-102203740D03*
X302565040Y-99663740D03*
X291465300Y-140336120D03*
X297815300Y-137796120D03*
X277177800Y-102236120D03*
X283527800Y-99696120D03*
X258127800Y-197486120D03*
X264477800Y-194946120D03*
X270034050Y-178436120D03*
X276384050Y-175896120D03*
X267652800Y-140336120D03*
X274002800Y-137796120D03*
X258127800Y-121286120D03*
X264477800Y-118746120D03*
X258069050Y-102236120D03*
X264419050Y-99696120D03*
X239077800Y-197486120D03*
X245427800Y-194946120D03*
X243840300Y-178436120D03*
X250190300Y-175896120D03*
X253365300Y-159386120D03*
X259715300Y-156846120D03*
X248602800Y-140336120D03*
X254952800Y-137796120D03*
X239077800Y-121286120D03*
X245427800Y-118746120D03*
X239077800Y-102236120D03*
X245427800Y-99696120D03*
X220027800Y-197486120D03*
X226377800Y-194946120D03*
X224790300Y-178436120D03*
X231140300Y-175896120D03*
X234315300Y-159386120D03*
X240665300Y-156846120D03*
X229552800Y-140336120D03*
X235902800Y-137796120D03*
X220027800Y-102236120D03*
X226377800Y-99696120D03*
X205740300Y-178436120D03*
X212090300Y-175896120D03*
X215265300Y-159386120D03*
X221615300Y-156846120D03*
X210502800Y-140336120D03*
X216852800Y-137796120D03*
X200977800Y-121286120D03*
X207327800Y-118746120D03*
X186690300Y-178436120D03*
X193040300Y-175896120D03*
X196215300Y-159386120D03*
X202565300Y-156846120D03*
X191452800Y-140336120D03*
X197802800Y-137796120D03*
X181890300Y-121286120D03*
X188240300Y-118746120D03*
X181927800Y-102236120D03*
X188277800Y-99696120D03*
X167640300Y-178436120D03*
X173990300Y-175896120D03*
X177165300Y-159386120D03*
X183515300Y-156846120D03*
X172402800Y-140336120D03*
X178752800Y-137796120D03*
X162877800Y-121286120D03*
X169227800Y-118746120D03*
X162877800Y-102236120D03*
X169227800Y-99696120D03*
X150971550Y-197486120D03*
X157321550Y-194946120D03*
X148590300Y-178436120D03*
X154940300Y-175896120D03*
X158115300Y-159386120D03*
X164465300Y-156846120D03*
X153352800Y-140336120D03*
X159702800Y-137796120D03*
X143827800Y-121286120D03*
X150177800Y-118746120D03*
X143827800Y-102236120D03*
X150177800Y-99696120D03*
X139065300Y-159386120D03*
X145415300Y-156846120D03*
X134302800Y-140336120D03*
X140652800Y-137796120D03*
X124777800Y-121286120D03*
X131127800Y-118746120D03*
X124777800Y-102236120D03*
X131127800Y-99696120D03*
X129540300Y-178436120D03*
X135890300Y-175896120D03*
X120015300Y-159386120D03*
X126365300Y-156846120D03*
X115252800Y-140336120D03*
X121602800Y-137796120D03*
X105727800Y-121286120D03*
X112077800Y-118746120D03*
X105727800Y-102236120D03*
X112077800Y-99696120D03*
X105727800Y-73661120D03*
X112077800Y-71121120D03*
X105727800Y-54611120D03*
X112077800Y-52071120D03*
X110490300Y-178436120D03*
X116840300Y-175896120D03*
X96202800Y-140336120D03*
X102552800Y-137796120D03*
X86677800Y-121286120D03*
X93027800Y-118746120D03*
X86677800Y-102236120D03*
X93027800Y-99696120D03*
X86677800Y-73661120D03*
X93027800Y-71121120D03*
X86677800Y-54611120D03*
X93027800Y-52071120D03*
X79534050Y-197486120D03*
X85884050Y-194946120D03*
X91440300Y-178436120D03*
X97790300Y-175896120D03*
X81915300Y-159386120D03*
X88265300Y-156846120D03*
X77152800Y-140336120D03*
X83502800Y-137796120D03*
X67627800Y-121286120D03*
X73977800Y-118746120D03*
X67627800Y-102236120D03*
X73977800Y-99696120D03*
X67627800Y-54611120D03*
X73977800Y-52071120D03*
X55721550Y-197486120D03*
X62071550Y-194946120D03*
X72390300Y-178436120D03*
X78740300Y-175896120D03*
X62865300Y-159386120D03*
X69215300Y-156846120D03*
X57944050Y-140336120D03*
X64294050Y-137796120D03*
X48577800Y-121286120D03*
X54927800Y-118746120D03*
X48577800Y-102236120D03*
X54927800Y-99696120D03*
X48577800Y-73661120D03*
X54927800Y-71121120D03*
X48577800Y-54611120D03*
X54927800Y-52071120D03*
X31909050Y-197486120D03*
X38259050Y-194946120D03*
X41434050Y-178436120D03*
X47784050Y-175896120D03*
X36671550Y-159386120D03*
X43021550Y-156846120D03*
X34290300Y-140336120D03*
X40640300Y-137796120D03*
X29527800Y-121286120D03*
X35877800Y-118746120D03*
X29527800Y-102236120D03*
X35877800Y-99696120D03*
X29527800Y-73661120D03*
X35877800Y-71121120D03*
X29527800Y-54611120D03*
X35877800Y-52071120D03*
X381952800Y-54611120D03*
X388302800Y-52071120D03*
D21*
X153728110Y-72020630D03*
D22*
X153928110Y-69480630D03*
X153728110Y-66940630D03*
X153928110Y-64400630D03*
X153728110Y-61860630D03*
D19*
X154878110Y-74940630D03*
X152978110Y-74940630D03*
X154878110Y-77190630D03*
X152978110Y-77190630D03*
D23*
X223878110Y-70420630D03*
X223878110Y-71690630D03*
X223878110Y-72960630D03*
X223878110Y-74230630D03*
X218478110Y-74230630D03*
X218478110Y-72960630D03*
X218478110Y-71690630D03*
X218478110Y-70420630D03*
D19*
X213378110Y-77190630D03*
X211478110Y-77190630D03*
X207728110Y-77190630D03*
X209628110Y-77190630D03*
D24*
X240778110Y-78940630D03*
X240778110Y-79940630D03*
X238078110Y-78940630D03*
X238078110Y-79940630D03*
D25*
X215928110Y-71690630D03*
D26*
X231078110Y-80390630D03*
X231078110Y-79440630D03*
X231078110Y-78490630D03*
X233778110Y-78490630D03*
X233778110Y-80390630D03*
X233778110Y-79440630D03*
D27*
X239500000Y-62000000D03*
D28*
X189178110Y-65290630D03*
X189178110Y-69590630D03*
D20*
X185928110Y-68390630D03*
X185928110Y-66490630D03*
X182000000Y-56900000D03*
X182000000Y-55000000D03*
X193428110Y-58140630D03*
X193428110Y-56240630D03*
D13*
X324803880Y-121285520D03*
X331153880Y-118745520D03*
D29*
X213528110Y-61690630D03*
X229328110Y-61690630D03*
D30*
X221428110Y-61690630D03*
D18*
X213428110Y-58190630D03*
X213428110Y-56190630D03*
X197678110Y-58190630D03*
X197678110Y-56190630D03*
X208928110Y-58190630D03*
X208928110Y-56190630D03*
X206678110Y-58190630D03*
X206678110Y-56190630D03*
D19*
X211528110Y-73940630D03*
X213428110Y-73940630D03*
D20*
X204428110Y-56240630D03*
X204428110Y-58140630D03*
X211178110Y-56240630D03*
X211178110Y-58140630D03*
X202178110Y-56240630D03*
X202178110Y-58140630D03*
X199928110Y-56240630D03*
X199928110Y-58140630D03*
D31*
X207481516Y-61122362D03*
X207481516Y-70922362D03*
X206211516Y-61122362D03*
X206211516Y-70922362D03*
X204941516Y-61122362D03*
X204941516Y-70922362D03*
X203671516Y-61122362D03*
X203671516Y-70922362D03*
X202401516Y-61122362D03*
X202401516Y-70922362D03*
X201131516Y-61122362D03*
X201131516Y-70922362D03*
X199861516Y-61122362D03*
X199861516Y-70922362D03*
X198591516Y-61122362D03*
X198591516Y-70922362D03*
D16*
X263178110Y-71128130D03*
X264178110Y-71128130D03*
X265178110Y-71128130D03*
X266178110Y-71128130D03*
D32*
X261878110Y-67253130D03*
X267478110Y-67253130D03*
D33*
X263178110Y-74190630D03*
X264178110Y-75190630D03*
X265178110Y-74190630D03*
X266178110Y-75190630D03*
D16*
X253178110Y-71128130D03*
X254178110Y-71128130D03*
X255178110Y-71128130D03*
X256178110Y-71128130D03*
X257178110Y-71128130D03*
X258178110Y-71128130D03*
D32*
X251878110Y-67253130D03*
X259478110Y-67253130D03*
D33*
X253178110Y-74190630D03*
X254178110Y-75190630D03*
X255178110Y-74190630D03*
X256178110Y-75190630D03*
X257178110Y-74190630D03*
X258178110Y-75190630D03*
D16*
X271178110Y-71128130D03*
X272178110Y-71128130D03*
X273178110Y-71128130D03*
X274178110Y-71128130D03*
X275178110Y-71128130D03*
X276178110Y-71128130D03*
D32*
X269878110Y-67253130D03*
X277478110Y-67253130D03*
D33*
X271178110Y-74190630D03*
X272178110Y-75190630D03*
X273178110Y-74190630D03*
X274178110Y-75190630D03*
X275178110Y-74190630D03*
X276178110Y-75190630D03*
D16*
X281178110Y-71128130D03*
X282178110Y-71128130D03*
X283178110Y-71128130D03*
X284178110Y-71128130D03*
D32*
X279878110Y-67253130D03*
X285478110Y-67253130D03*
D33*
X281178110Y-74190630D03*
X282178110Y-75190630D03*
X283178110Y-74190630D03*
X284178110Y-75190630D03*
D34*
X236278110Y-74690630D03*
X230078110Y-74690630D03*
D20*
X235928110Y-61240630D03*
X235928110Y-63140630D03*
X233678110Y-61240630D03*
X233678110Y-63140630D03*
D16*
X235083110Y-71140630D03*
X233813110Y-71140630D03*
X232543110Y-71140630D03*
X231273110Y-71140630D03*
X231273110Y-65740630D03*
X232543110Y-65740630D03*
X233813110Y-65740630D03*
X235083110Y-65740630D03*
D10*
G36*
X183142665Y-74571911D02*
X184309391Y-73405185D01*
X185299341Y-74395135D01*
X184132615Y-75561861D01*
X183142665Y-74571911D01*
X183142665Y-74571911D01*
G37*
G36*
X184556879Y-75986125D02*
X185723605Y-74819399D01*
X186713555Y-75809349D01*
X185546829Y-76976075D01*
X184556879Y-75986125D01*
X184556879Y-75986125D01*
G37*
G36*
X181142665Y-76321911D02*
X182309391Y-75155185D01*
X183299341Y-76145135D01*
X182132615Y-77311861D01*
X181142665Y-76321911D01*
X181142665Y-76321911D01*
G37*
G36*
X182556879Y-77736125D02*
X183723605Y-76569399D01*
X184713555Y-77559349D01*
X183546829Y-78726075D01*
X182556879Y-77736125D01*
X182556879Y-77736125D01*
G37*
D19*
X209178110Y-73940630D03*
X207278110Y-73940630D03*
D20*
X195428110Y-58140630D03*
X195428110Y-56240630D03*
D25*
X226678110Y-71690630D03*
X199178110Y-73940630D03*
D35*
X205428110Y-73940630D03*
X203228110Y-73940630D03*
X205528110Y-77190630D03*
X203328110Y-77190630D03*
D14*
X142000000Y-88000000D03*
D15*
X143270000Y-88000000D03*
X144540000Y-88000000D03*
X145810000Y-88000000D03*
X147080000Y-88000000D03*
X148350000Y-88000000D03*
X149620000Y-88000000D03*
X150890000Y-88000000D03*
X152160000Y-88000000D03*
X153430000Y-88000000D03*
X154700000Y-88000000D03*
X155970000Y-88000000D03*
X157240000Y-88000000D03*
X158510000Y-88000000D03*
X159780000Y-88000000D03*
X161050000Y-88000000D03*
X162320000Y-88000000D03*
X163590000Y-88000000D03*
X164860000Y-88000000D03*
X166130000Y-88000000D03*
X167400000Y-88000000D03*
X168670000Y-88000000D03*
X169940000Y-88000000D03*
X171210000Y-88000000D03*
X172480000Y-88000000D03*
X173750000Y-88000000D03*
X175020000Y-88000000D03*
D36*
X37000000Y-93000000D03*
D37*
X37000000Y-88000000D03*
D36*
X56000000Y-93000000D03*
D37*
X56000000Y-88000000D03*
D36*
X75009690Y-93000000D03*
D37*
X75009690Y-88000000D03*
D36*
X94500000Y-93000000D03*
D37*
X94500000Y-88000000D03*
D36*
X105500000Y-93000000D03*
D37*
X105500000Y-88000000D03*
D36*
X313500000Y-93000000D03*
D37*
X313500000Y-88000000D03*
D36*
X332000000Y-93000000D03*
D37*
X332000000Y-88000000D03*
D36*
X351500000Y-93000000D03*
D37*
X351500000Y-88000000D03*
D36*
X370500000Y-93000000D03*
D37*
X370500000Y-88000000D03*
D36*
X390000000Y-93000000D03*
D37*
X390000000Y-88000000D03*
D36*
X102750000Y-93000000D03*
D37*
X102750000Y-88000000D03*
D36*
X100000000Y-93000000D03*
D37*
X100000000Y-88000000D03*
D36*
X319500000Y-93000000D03*
D37*
X319500000Y-88000000D03*
D36*
X316500000Y-93000000D03*
D37*
X316500000Y-88000000D03*
D12*
X292931891Y-85681891D03*
X292894980Y-50006460D03*
X126250000Y-50000000D03*
D10*
G36*
X181077070Y-75918016D02*
X179450724Y-74291670D01*
X180511384Y-73231010D01*
X182137730Y-74857356D01*
X181077070Y-75918016D01*
X181077070Y-75918016D01*
G37*
G36*
X182844836Y-74150250D02*
X181218490Y-72523904D01*
X182279150Y-71463244D01*
X183905496Y-73089590D01*
X182844836Y-74150250D01*
X182844836Y-74150250D01*
G37*
D16*
X245178110Y-71128130D03*
X246178110Y-71128130D03*
X247178110Y-71128130D03*
X248178110Y-71128130D03*
D32*
X243878110Y-67253130D03*
X249478110Y-67253130D03*
D33*
X245178110Y-75190630D03*
X248178110Y-75190630D03*
D38*
X165478110Y-70940630D03*
X165478110Y-70440630D03*
X165478110Y-69940630D03*
X165478110Y-69440630D03*
X165478110Y-68940630D03*
X165478110Y-68440630D03*
X165478110Y-67940630D03*
X165478110Y-67440630D03*
X165478110Y-66940630D03*
X165478110Y-66440630D03*
X165478110Y-65940630D03*
X165478110Y-65440630D03*
X165478110Y-64940630D03*
X165478110Y-64440630D03*
X165478110Y-63940630D03*
X165478110Y-63440630D03*
D39*
X167428110Y-61490630D03*
X167928110Y-61490630D03*
X168428110Y-61490630D03*
X168928110Y-61490630D03*
X169428110Y-61490630D03*
X169928110Y-61490630D03*
X170428110Y-61490630D03*
X170928110Y-61490630D03*
X171428110Y-61490630D03*
X171928110Y-61490630D03*
X172428110Y-61490630D03*
X172928110Y-61490630D03*
X173428110Y-61490630D03*
X173928110Y-61490630D03*
X174428110Y-61490630D03*
X174928110Y-61490630D03*
D38*
X176878110Y-66940630D03*
X176878110Y-67440630D03*
X176878110Y-67940630D03*
X176878110Y-68440630D03*
X176878110Y-68940630D03*
X176878110Y-69440630D03*
X176878110Y-69940630D03*
X176878110Y-70440630D03*
X176878110Y-70940630D03*
D39*
X174928110Y-72890630D03*
X174428110Y-72890630D03*
X173928110Y-72890630D03*
X173428110Y-72890630D03*
X172928110Y-72890630D03*
X172428110Y-72890630D03*
X171928110Y-72890630D03*
X171428110Y-72890630D03*
X170928110Y-72890630D03*
X170428110Y-72890630D03*
X169928110Y-72890630D03*
X169428110Y-72890630D03*
X168928110Y-72890630D03*
X168428110Y-72890630D03*
X167928110Y-72890630D03*
X167428110Y-72890630D03*
D38*
X176878110Y-66440630D03*
X176878110Y-65940630D03*
X176878110Y-65440630D03*
X176878110Y-64940630D03*
X176878110Y-64440630D03*
X176878110Y-63940630D03*
X176878110Y-63440630D03*
D40*
X104775440Y-77672210D03*
X104775440Y-79772210D03*
X381001600Y-191972690D03*
X381001600Y-194072690D03*
X381001600Y-163397570D03*
X381001600Y-165497570D03*
X381000300Y-144347490D03*
X381000300Y-146447490D03*
X381001600Y-125297410D03*
X381001600Y-127397410D03*
X381001600Y-106247330D03*
X381001600Y-108347330D03*
X381000300Y-77672210D03*
X381000300Y-79772210D03*
X381001600Y-58622130D03*
X381001600Y-60722130D03*
X361951520Y-201497730D03*
X361951520Y-203597730D03*
X361950300Y-182447650D03*
X361950300Y-184547650D03*
X361950300Y-163397570D03*
X361950300Y-165497570D03*
X361951520Y-144347490D03*
X361951520Y-146447490D03*
X361951520Y-125297410D03*
X361951520Y-127397410D03*
X361950300Y-106247330D03*
X361950300Y-108347330D03*
X361950300Y-77672210D03*
X361950300Y-79772210D03*
X361950300Y-58622130D03*
X361950300Y-60722130D03*
X342901440Y-201497730D03*
X342901440Y-203597730D03*
X342901440Y-182447650D03*
X342901440Y-184547650D03*
X342900300Y-163397570D03*
X342900300Y-165497570D03*
X342901440Y-144347490D03*
X342901440Y-146447490D03*
X342901440Y-125297410D03*
X342901440Y-127397410D03*
X342900300Y-106247330D03*
X342900300Y-108347330D03*
X342900300Y-77672210D03*
X342900300Y-79772210D03*
X342901440Y-58622130D03*
X342901440Y-60722130D03*
X319088840Y-206260250D03*
X319088840Y-208360250D03*
X323851360Y-182447650D03*
X323851360Y-184547650D03*
X323850300Y-163397570D03*
X323850300Y-165497570D03*
X323851360Y-144347490D03*
X323851360Y-146447490D03*
X323851360Y-125297410D03*
X323851360Y-127397410D03*
X323850300Y-106247330D03*
X323850300Y-108347330D03*
X323850300Y-77672210D03*
X323850300Y-79772210D03*
X323850300Y-58622130D03*
X323850300Y-60722130D03*
X300037800Y-206260250D03*
X300037800Y-208360250D03*
X300038760Y-187210170D03*
X300038760Y-189310170D03*
X295275300Y-106247330D03*
X295275300Y-108347330D03*
X304801280Y-77672210D03*
X304801280Y-79772210D03*
X304801280Y-58622130D03*
X304801280Y-60722130D03*
X280988680Y-206260250D03*
X280988680Y-208360250D03*
X283369050Y-163397570D03*
X283369050Y-165497570D03*
X290513720Y-144347490D03*
X290513720Y-146447490D03*
X285751200Y-125297410D03*
X285751200Y-127397410D03*
X276225300Y-106247330D03*
X276225300Y-108347330D03*
X257176080Y-201497730D03*
X257176080Y-203597730D03*
X269082380Y-182447650D03*
X269082380Y-184547650D03*
X266700300Y-144347490D03*
X266700300Y-146447490D03*
X257176080Y-125297410D03*
X257176080Y-127397410D03*
X257176080Y-106247330D03*
X257176080Y-108347330D03*
X238126000Y-201497730D03*
X238126000Y-203597730D03*
X242888520Y-182447650D03*
X242888520Y-184547650D03*
X252413560Y-163397570D03*
X252413560Y-165497570D03*
X247651040Y-144347490D03*
X247651040Y-146447490D03*
X238126000Y-125297410D03*
X238126000Y-127397410D03*
X238125300Y-106247330D03*
X238125300Y-108347330D03*
X219075920Y-201497730D03*
X219075920Y-203597730D03*
X223837800Y-182447650D03*
X223837800Y-184547650D03*
X233363480Y-163397570D03*
X233363480Y-165497570D03*
X228600300Y-144347490D03*
X228600300Y-146447490D03*
X219075920Y-125297410D03*
X219075920Y-127397410D03*
X219075300Y-106247330D03*
X219075300Y-108347330D03*
X204788360Y-182447650D03*
X204788360Y-184547650D03*
X214313400Y-163397570D03*
X214313400Y-165497570D03*
X209550300Y-144347490D03*
X209550300Y-146447490D03*
X200025840Y-125297410D03*
X200025840Y-127397410D03*
X200025840Y-106247330D03*
X200025840Y-108347330D03*
D10*
G36*
X183982789Y-174203378D02*
X183791581Y-175031593D01*
X182817211Y-174806642D01*
X183008419Y-173978427D01*
X183982789Y-174203378D01*
X183982789Y-174203378D01*
G37*
G36*
X181936611Y-173730980D02*
X181745403Y-174559195D01*
X180771033Y-174334244D01*
X180962241Y-173506029D01*
X181936611Y-173730980D01*
X181936611Y-173730980D01*
G37*
D40*
X195263320Y-163397570D03*
X195263320Y-165497570D03*
X190500800Y-144347490D03*
X190500800Y-146447490D03*
X180975760Y-125297410D03*
X180975760Y-127397410D03*
X180975760Y-106247330D03*
X180975760Y-108347330D03*
X166688200Y-182447650D03*
X166688200Y-184547650D03*
D10*
G36*
X184900224Y-161832873D02*
X185120220Y-161011836D01*
X186086146Y-161270655D01*
X185866150Y-162091692D01*
X184900224Y-161832873D01*
X184900224Y-161832873D01*
G37*
G36*
X186928668Y-162376393D02*
X187148664Y-161555356D01*
X188114590Y-161814175D01*
X187894594Y-162635212D01*
X186928668Y-162376393D01*
X186928668Y-162376393D01*
G37*
D40*
X171450720Y-144347490D03*
X171450720Y-146447490D03*
X161925680Y-125297410D03*
X161925680Y-127397410D03*
X161925680Y-106247330D03*
X161925680Y-108347330D03*
D10*
G36*
X181432380Y-193560738D02*
X181127767Y-194354282D01*
X180194186Y-193995914D01*
X180498799Y-193202370D01*
X181432380Y-193560738D01*
X181432380Y-193560738D01*
G37*
G36*
X179471862Y-192808166D02*
X179167249Y-193601710D01*
X178233668Y-193243342D01*
X178538281Y-192449798D01*
X179471862Y-192808166D01*
X179471862Y-192808166D01*
G37*
D40*
X147638120Y-182447650D03*
X147638120Y-184547650D03*
X157163160Y-163397570D03*
X157163160Y-165497570D03*
X152400640Y-144347490D03*
X152400640Y-146447490D03*
X142875600Y-125297410D03*
X142875600Y-127397410D03*
X142875600Y-106247330D03*
X142875600Y-108347330D03*
X138112800Y-163397570D03*
X138112800Y-165497570D03*
X133350560Y-144347490D03*
X133350560Y-146447490D03*
X123825520Y-125297410D03*
X123825520Y-127397410D03*
X123825520Y-106247330D03*
X123825520Y-108347330D03*
X128588040Y-182447650D03*
X128588040Y-184547650D03*
X119063000Y-163397570D03*
X119063000Y-165497570D03*
X114300300Y-144347490D03*
X114300300Y-146447490D03*
X104775440Y-125297410D03*
X104775440Y-127397410D03*
X104775440Y-106247330D03*
X104775440Y-108347330D03*
X104775440Y-58622130D03*
X104775440Y-60722130D03*
X109537960Y-182447650D03*
X109537960Y-184547650D03*
X100012920Y-163397570D03*
X100012920Y-165497570D03*
X95250300Y-144347490D03*
X95250300Y-146447490D03*
D10*
G36*
X83616012Y-124173213D02*
X84386374Y-123813987D01*
X84808992Y-124720295D01*
X84038630Y-125079521D01*
X83616012Y-124173213D01*
X83616012Y-124173213D01*
G37*
G36*
X84503510Y-126076459D02*
X85273872Y-125717233D01*
X85696490Y-126623541D01*
X84926128Y-126982767D01*
X84503510Y-126076459D01*
X84503510Y-126076459D01*
G37*
D40*
X100012920Y-106247330D03*
X100012920Y-108347330D03*
X85725360Y-77672210D03*
X85725360Y-79772210D03*
X85725360Y-58622130D03*
X85725360Y-60722130D03*
X78581550Y-201497730D03*
X78581550Y-203597730D03*
X90487880Y-182447650D03*
X90487880Y-184547650D03*
X80962840Y-163397570D03*
X80962840Y-165497570D03*
X76200320Y-144347490D03*
X76200320Y-146447490D03*
D10*
G36*
X76011836Y-126820220D02*
X76832873Y-126600224D01*
X77091692Y-127566150D01*
X76270655Y-127786146D01*
X76011836Y-126820220D01*
X76011836Y-126820220D01*
G37*
G36*
X76555356Y-128848664D02*
X77376393Y-128628668D01*
X77635212Y-129594594D01*
X76814175Y-129814590D01*
X76555356Y-128848664D01*
X76555356Y-128848664D01*
G37*
D40*
X64294020Y-106247330D03*
X64294020Y-108347330D03*
X66675300Y-77672210D03*
X66675300Y-79772210D03*
X66675280Y-58622130D03*
X66675280Y-60722130D03*
X54769050Y-201497730D03*
X54769050Y-203597730D03*
X71437800Y-182447650D03*
X71437800Y-184547650D03*
X61912760Y-163397570D03*
X61912760Y-165497570D03*
X57150240Y-144347490D03*
X57150240Y-146447490D03*
X47625200Y-125297410D03*
X47625200Y-127397410D03*
D10*
G36*
X48963987Y-108036374D02*
X49323213Y-107266012D01*
X50229521Y-107688630D01*
X49870295Y-108458992D01*
X48963987Y-108036374D01*
X48963987Y-108036374D01*
G37*
G36*
X50867233Y-108923872D02*
X51226459Y-108153510D01*
X52132767Y-108576128D01*
X51773541Y-109346490D01*
X50867233Y-108923872D01*
X50867233Y-108923872D01*
G37*
D40*
X47625200Y-77672210D03*
X47625200Y-79772210D03*
X47625300Y-58622130D03*
X47625300Y-60722130D03*
X30956550Y-201497730D03*
X30956550Y-203597730D03*
X40481550Y-182447650D03*
X40481550Y-184547650D03*
X35718900Y-163397570D03*
X35718900Y-165497570D03*
X33337800Y-144347490D03*
X33337800Y-146447490D03*
X28575120Y-125297410D03*
X28575120Y-127397410D03*
X28575120Y-106247330D03*
X28575120Y-108347330D03*
X28575120Y-77672210D03*
X28575120Y-79772210D03*
X28575120Y-58622130D03*
X28575120Y-60722130D03*
D41*
X314326320Y-152400640D03*
X309563800Y-90487880D03*
X209500000Y-90487880D03*
X109537960Y-90487880D03*
D35*
X259750000Y-80100000D03*
X259750000Y-77900000D03*
X262000000Y-80100000D03*
X262000000Y-77900000D03*
X270000000Y-80100000D03*
X270000000Y-77900000D03*
X267750000Y-80100000D03*
X267750000Y-77900000D03*
D20*
X259750000Y-83950000D03*
X259750000Y-82050000D03*
X262000000Y-83950000D03*
X262000000Y-82050000D03*
X270000000Y-83950000D03*
X270000000Y-82050000D03*
X267750000Y-83950000D03*
X267750000Y-82050000D03*
D14*
X195300000Y-60400000D03*
X196600000Y-60400000D03*
D35*
X161600000Y-75600000D03*
X163800000Y-75600000D03*
D19*
X163700000Y-73400000D03*
X161800000Y-73400000D03*
D33*
X165400000Y-74700000D03*
X171956649Y-53305552D03*
X168428876Y-53337956D03*
X154919113Y-81008663D03*
X172201807Y-81202277D03*
X170186493Y-81207392D03*
X225728100Y-74190630D03*
X168458861Y-66387601D03*
X174678110Y-67440630D03*
X168928110Y-63440630D03*
X171428110Y-63440630D03*
X220400000Y-70200000D03*
X220400000Y-71600000D03*
X220400000Y-73000000D03*
X220400000Y-74200000D03*
X222000000Y-70200000D03*
X222000000Y-71600000D03*
X222000000Y-73000000D03*
X222000000Y-74200000D03*
X247000000Y-68500000D03*
X283000000Y-68500000D03*
X275000000Y-68500000D03*
X265000000Y-68500000D03*
X257000000Y-68500000D03*
X242264856Y-70791604D03*
X239500000Y-64500000D03*
X239500000Y-59000000D03*
X192428110Y-67400000D03*
X198500000Y-68000000D03*
X201428110Y-77190630D03*
X201428110Y-73940630D03*
X209178110Y-67190630D03*
X209178110Y-71690630D03*
X209178110Y-69440630D03*
X206603100Y-54940630D03*
X184928110Y-57940630D03*
X224428110Y-61690630D03*
X218428110Y-61690630D03*
X157797010Y-66440630D03*
X233678110Y-59940630D03*
X235928110Y-59940630D03*
X229678110Y-71190630D03*
X232432508Y-81132966D03*
X184678110Y-78690630D03*
X186678110Y-76940630D03*
X232678110Y-68940630D03*
X206028110Y-68440630D03*
X213428110Y-54940630D03*
X208928110Y-54940630D03*
X199928110Y-54940630D03*
X197678110Y-54940630D03*
X184928110Y-64690630D03*
X174250000Y-64000000D03*
X258000000Y-84000000D03*
X266250000Y-84000000D03*
X174678110Y-65190630D03*
X167676680Y-65183569D03*
X214928110Y-73940630D03*
X215678110Y-77190630D03*
X167478110Y-63790630D03*
X164478110Y-54990630D03*
X170878110Y-70590630D03*
X174178110Y-70190630D03*
X215178110Y-57190630D03*
X169928110Y-68440630D03*
X172428110Y-68440630D03*
X172428110Y-65940630D03*
X169928110Y-65940630D03*
X171178110Y-67190630D03*
X172678110Y-63440630D03*
X173678110Y-66440630D03*
X176878093Y-79602159D03*
X176864852Y-75931387D03*
X322660730Y-63103390D03*
X322660730Y-83344100D03*
X161925680Y-96441030D03*
X175022610Y-101203550D03*
X178128349Y-80519003D03*
X178143253Y-77034214D03*
X161925680Y-98822290D03*
X175022610Y-103584810D03*
X175022610Y-108347330D03*
X179785130Y-108347330D03*
X152400640Y-108347330D03*
X159544420Y-108347330D03*
X140494340Y-108347330D03*
X133350560Y-108347330D03*
X171450720Y-127397410D03*
X152400640Y-127397410D03*
X159544420Y-127397410D03*
X184250000Y-146447490D03*
X188000000Y-165497570D03*
X189213558Y-173322967D03*
X186928910Y-189961073D03*
X307340300Y-135731820D03*
X232552144Y-49878895D03*
X185178110Y-47486484D03*
X185178110Y-49690630D03*
X203428110Y-47453149D03*
X203428110Y-63440630D03*
X232878110Y-47486484D03*
X231575580Y-48442696D03*
X186428110Y-48433664D03*
X207428110Y-48433664D03*
X207428110Y-68190630D03*
X159535173Y-68298085D03*
X259750000Y-76000000D03*
X262000000Y-76000000D03*
X270000000Y-76000000D03*
X267750000Y-76000000D03*
X193428110Y-59690630D03*
X161678110Y-70440630D03*
X202401516Y-68440630D03*
X204941516Y-63190630D03*
X232428110Y-77690630D03*
X162428110Y-71440630D03*
M02*
