M48
;DRILL file {KiCad 4.0.5+dfsg1-4} date Sat Apr  7 15:20:31 2018
;FORMAT={-:-/ absolute / inch / decimal}
FMAT,2
INCH,TZ
T1C0.016
T2C0.020
T3C0.026
T4C0.028
T5C0.031
T6C0.039
T7C0.059
T8C0.106
T9C0.120
T10C0.154
T11C0.157
T12C0.197
%
G90
G05
M72
T1
X6.2205Y-2.7264
X6.25Y-2.7657
X6.2795Y-2.8051
X6.3091Y-2.8445
T2
X5.25Y-4.2656
X5.5313Y-4.2656
X6.Y-4.2656
X6.Y-5.0156
X6.0992Y-3.1893
X6.2125Y-2.6158
X6.2809Y-2.6889
X6.2813Y-4.2656
X6.2813Y-5.0156
X6.3653Y-2.7733
X6.375Y-3.7969
X6.375Y-3.8906
X6.3948Y-2.8126
X6.4755Y-2.165
X6.5118Y-2.9409
X6.5936Y-2.5114
X6.6014Y-2.5663
X6.6311Y-2.0999
X6.6322Y-2.6137
X6.6507Y-2.4977
X6.6901Y-2.5961
X6.6901Y-2.6945
X6.7003Y-3.1971
X6.7275Y-2.7792
X6.7393Y-2.6453
X6.7491Y-2.4977
X6.75Y-5.0156
X6.7699Y-2.0986
X6.7796Y-3.1969
X6.7885Y-2.5961
X6.7885Y-2.6945
X6.7984Y-2.4977
X6.8377Y-2.6158
X6.8574Y-2.7634
X6.8602Y-2.5197
X6.8771Y-2.5666
X6.8771Y-2.6551
X6.8907Y-3.9844
X6.8907Y-4.0781
X6.8907Y-4.2656
X6.9632Y-2.9894
X6.9637Y-3.1339
X7.0129Y-3.17
X7.0135Y-3.0328
X7.0782Y-4.2656
X7.2539Y-5.7656
X7.2708Y-3.0981
X7.2806Y-2.2811
X7.2806Y-2.5469
X7.2905Y-1.8695
X7.2905Y-1.9563
X7.3397Y-1.9068
X7.3495Y-3.0292
X7.3594Y-7.4788
X7.4016Y-6.5157
X7.4494Y-6.8237
X7.5759Y-2.6535
X7.6153Y-2.35
X7.7826Y-2.163
X7.815Y-2.6772
X7.8712Y-2.163
X7.9302Y-2.911
X7.9302Y-3.039
X7.9686Y-2.6945
X8.009Y-1.8682
X8.009Y-2.4977
X8.0686Y-2.4878
X8.1113Y-2.6945
X8.134Y-2.163
X8.1665Y-1.9068
X8.1665Y-2.6847
X8.2255Y-2.163
X8.2354Y-2.6453
X8.2354Y-2.7339
X8.2354Y-2.8225
X8.4027Y-2.163
X8.4617Y-2.911
X8.4716Y-2.2516
X8.4913Y-3.039
X8.5995Y-2.4288
X8.6772Y-2.7638
X8.6772Y-2.8189
X8.6772Y-2.874
X8.6772Y-2.9213
X8.7402Y-2.7638
X8.7402Y-2.8189
X8.7402Y-2.874
X8.7402Y-2.9213
X8.8358Y-2.4288
X8.8869Y-2.9209
X9.0424Y-2.8028
X9.1171Y-1.9072
X9.1507Y-3.0587
X9.1509Y-3.1942
X9.1556Y-1.9637
X9.1606Y-2.7142
X9.1684Y-1.8695
X9.1999Y-2.3599
X9.2885Y-2.3599
X9.4291Y-2.3228
X9.4291Y-2.5394
X9.538Y-2.7871
X9.6527Y-2.9603
X9.7244Y-2.6969
X9.7708Y-2.9603
X9.9676Y-2.9209
X10.007Y-2.9603
X10.0464Y-2.9209
X10.0858Y-2.9603
X10.1181Y-2.6969
X10.1251Y-2.9209
X10.1575Y-3.3071
X10.1645Y-2.9603
X10.2264Y-2.9921
X10.315Y-2.9921
X10.3613Y-2.9209
X10.4007Y-2.9603
X10.4331Y-2.6969
X10.4401Y-2.9209
X10.4795Y-2.9603
X10.4823Y-3.3071
X10.5413Y-2.9921
X10.6299Y-2.9921
X10.6763Y-2.9209
X10.7157Y-2.9603
X10.755Y-2.9209
X10.7944Y-2.9603
X10.8268Y-2.6969
X10.8338Y-2.9209
X10.8732Y-2.9603
X11.07Y-2.9209
X11.1094Y-2.9603
X11.1417Y-2.6969
X11.1487Y-2.9209
X11.1881Y-2.9603
X12.1Y-5.3438
X12.7032Y-2.4844
X12.7032Y-3.2813
T3
X5.5906Y-3.4646
X5.5906Y-3.6614
X5.6406Y-3.4646
X5.6406Y-3.6614
X5.6906Y-3.4646
X5.6906Y-3.6614
X5.7406Y-3.4646
X5.7406Y-3.6614
X5.7906Y-3.4646
X5.7906Y-3.6614
X5.8406Y-3.4646
X5.8406Y-3.6614
X5.8906Y-3.4646
X5.8906Y-3.6614
X5.9406Y-3.4646
X5.9406Y-3.6614
X5.9906Y-3.4646
X5.9906Y-3.6614
X6.0406Y-3.4646
X6.0406Y-3.6614
X6.0906Y-3.4646
X6.0906Y-3.6614
X6.1406Y-3.4646
X6.1406Y-3.6614
X6.1906Y-3.4646
X6.1906Y-3.6614
X6.2406Y-3.4646
X6.2406Y-3.6614
X6.2906Y-3.4646
X6.2906Y-3.6614
X6.3406Y-3.4646
X6.3406Y-3.6614
X6.3906Y-3.4646
X6.3906Y-3.6614
X6.4406Y-3.4646
X6.4406Y-3.6614
X6.4906Y-3.4646
X6.4906Y-3.6614
X6.5406Y-3.4646
X6.5406Y-3.6614
X6.5906Y-3.4646
X6.5906Y-3.6614
X6.6406Y-3.4646
X6.6406Y-3.6614
X6.6906Y-3.4646
X6.6906Y-3.6614
X6.7406Y-3.4646
X6.7406Y-3.6614
X6.7906Y-3.4646
X6.7906Y-3.6614
X6.8406Y-3.4646
X6.8406Y-3.6614
X6.8906Y-3.4646
X6.8906Y-3.6614
T4
X1.4567Y-3.4646
X1.4567Y-3.6614
X2.2047Y-3.4646
X2.2047Y-3.6614
X2.9531Y-3.4646
X2.9531Y-3.6614
X3.7205Y-3.4646
X3.7205Y-3.6614
X3.937Y-3.4646
X3.937Y-3.6614
X4.0453Y-3.4646
X4.0453Y-3.6614
X4.1535Y-3.4646
X4.1535Y-3.6614
X12.3425Y-3.4646
X12.3425Y-3.6614
X12.4606Y-3.4646
X12.4606Y-3.6614
X12.5787Y-3.4646
X12.5787Y-3.6614
X13.0709Y-3.4646
X13.0709Y-3.6614
X13.8386Y-3.4646
X13.8386Y-3.6614
X14.5866Y-3.4646
X14.5866Y-3.6614
X15.3543Y-3.4646
X15.3543Y-3.6614
T5
X7.8417Y-2.911
X8.5011Y-2.8225
X8.9243Y-2.8225
X9.4291Y-2.4409
T6
X6.0523Y-2.4355
X6.0523Y-2.6355
X6.0523Y-2.8355
X6.0602Y-2.5355
X6.0602Y-2.7355
T7
X1.1625Y-2.15
X1.1625Y-2.9
X1.1625Y-4.025
X1.1625Y-4.775
X1.2563Y-7.775
X1.35Y-5.525
X1.4125Y-2.05
X1.4125Y-2.8
X1.4125Y-3.925
X1.4125Y-4.675
X1.4438Y-6.275
X1.5063Y-7.675
X1.6Y-5.425
X1.6313Y-7.025
X1.6938Y-6.175
X1.8813Y-6.925
X1.9125Y-2.15
X1.9125Y-2.9
X1.9125Y-4.025
X1.9125Y-4.775
X2.1625Y-2.05
X2.1625Y-2.8
X2.1625Y-3.925
X2.1625Y-4.675
X2.1938Y-7.775
X2.2813Y-5.525
X2.4438Y-7.675
X2.475Y-6.275
X2.5313Y-5.425
X2.6625Y-2.15
X2.6625Y-2.9
X2.6625Y-4.025
X2.6625Y-4.775
X2.725Y-6.175
X2.85Y-7.025
X2.9125Y-2.05
X2.9125Y-2.8
X2.9125Y-3.925
X2.9125Y-4.675
X3.0375Y-5.525
X3.1Y-6.925
X3.1313Y-7.775
X3.225Y-6.275
X3.2875Y-5.425
X3.3813Y-7.675
X3.4125Y-2.15
X3.4125Y-2.9
X3.4125Y-4.025
X3.4125Y-4.775
X3.475Y-6.175
X3.6Y-7.025
X3.6625Y-2.05
X3.6625Y-2.8
X3.6625Y-3.925
X3.6625Y-4.675
X3.7875Y-5.525
X3.85Y-6.925
X3.975Y-6.275
X4.0375Y-5.425
X4.1625Y-2.15
X4.1625Y-2.9
X4.1625Y-4.025
X4.1625Y-4.775
X4.225Y-6.175
X4.35Y-7.025
X4.4125Y-2.05
X4.4125Y-2.8
X4.4125Y-3.925
X4.4125Y-4.675
X4.5375Y-5.525
X4.6Y-6.925
X4.725Y-6.275
X4.7875Y-5.425
X4.9125Y-4.025
X4.9125Y-4.775
X4.975Y-6.175
X5.1Y-7.025
X5.1625Y-3.925
X5.1625Y-4.675
X5.2875Y-5.525
X5.35Y-6.925
X5.475Y-6.275
X5.5375Y-5.425
X5.6625Y-4.025
X5.6625Y-4.775
X5.725Y-6.175
X5.85Y-7.025
X5.9125Y-3.925
X5.9125Y-4.675
X5.9438Y-7.775
X6.0375Y-5.525
X6.1Y-6.925
X6.1938Y-7.675
X6.225Y-6.275
X6.2875Y-5.425
X6.4125Y-4.025
X6.4125Y-4.775
X6.475Y-6.175
X6.6Y-7.025
X6.6625Y-3.925
X6.6625Y-4.675
X6.7875Y-5.525
X6.85Y-6.925
X6.975Y-6.275
X7.0375Y-5.425
X7.161Y-4.775
X7.1625Y-4.025
X7.225Y-6.175
X7.35Y-7.025
X7.411Y-4.675
X7.4125Y-3.925
X7.5375Y-5.525
X7.6Y-6.925
X7.725Y-6.275
X7.7875Y-5.425
X7.9125Y-4.025
X7.9125Y-4.775
X7.975Y-6.175
X8.1Y-7.025
X8.1625Y-3.925
X8.1625Y-4.675
X8.2875Y-5.525
X8.35Y-6.925
X8.475Y-6.275
X8.5375Y-5.425
X8.6625Y-4.025
X8.6625Y-4.775
X8.6625Y-7.775
X8.725Y-6.175
X8.85Y-7.025
X8.9125Y-3.925
X8.9125Y-4.675
X8.9125Y-7.675
X9.0375Y-5.525
X9.1Y-6.925
X9.225Y-6.275
X9.2875Y-5.425
X9.4125Y-4.025
X9.4125Y-4.775
X9.4125Y-7.775
X9.475Y-6.175
X9.6Y-7.025
X9.6625Y-3.925
X9.6625Y-4.675
X9.6625Y-7.675
X9.7875Y-5.525
X9.85Y-6.925
X9.975Y-6.275
X10.0375Y-5.425
X10.1602Y-4.025
X10.1625Y-4.775
X10.1625Y-7.775
X10.225Y-6.175
X10.4102Y-3.925
X10.4125Y-4.675
X10.4125Y-7.675
X10.5375Y-5.525
X10.6313Y-7.025
X10.7875Y-5.425
X10.8813Y-6.925
X10.9125Y-4.025
X11.1Y-7.9625
X11.1625Y-3.925
X11.1938Y-6.275
X11.2875Y-4.775
X11.35Y-7.8625
X11.4438Y-6.175
X11.475Y-5.525
X11.5375Y-4.675
X11.662Y-4.0238
X11.725Y-5.425
X11.85Y-7.2125
X11.85Y-7.9625
X11.912Y-3.9238
X12.0375Y-2.15
X12.0375Y-2.9
X12.1Y-7.1125
X12.1Y-7.8625
X12.2875Y-2.05
X12.2875Y-2.8
X12.6Y-7.9625
X12.7875Y-2.15
X12.7875Y-2.9
X12.7875Y-4.025
X12.7875Y-5.525
X12.7875Y-6.275
X12.7875Y-7.025
X12.7876Y-4.775
X12.85Y-7.8625
X13.0375Y-2.05
X13.0375Y-2.8
X13.0375Y-3.925
X13.0375Y-5.425
X13.0375Y-6.175
X13.0375Y-6.925
X13.0376Y-4.675
X13.5375Y-2.15
X13.5375Y-2.9
X13.5375Y-4.025
X13.5375Y-4.775
X13.5375Y-5.525
X13.5375Y-6.275
X13.5375Y-7.025
X13.5375Y-7.775
X13.7875Y-2.05
X13.7875Y-2.8
X13.7875Y-3.925
X13.7875Y-4.675
X13.7875Y-5.425
X13.7875Y-6.175
X13.7875Y-6.925
X13.7875Y-7.675
X14.2875Y-2.15
X14.2875Y-2.9
X14.2875Y-4.025
X14.2875Y-4.775
X14.2875Y-5.525
X14.2875Y-6.275
X14.2875Y-7.025
X14.2883Y-7.775
X14.5375Y-2.05
X14.5375Y-2.8
X14.5375Y-3.925
X14.5375Y-4.675
X14.5375Y-5.425
X14.5375Y-6.175
X14.5375Y-6.925
X14.5383Y-7.675
X15.0375Y-2.15
X15.0375Y-2.9
X15.0375Y-4.025
X15.0375Y-4.775
X15.0375Y-5.525
X15.0375Y-6.275
X15.0375Y-7.4
X15.2875Y-2.05
X15.2875Y-2.8
X15.2875Y-3.925
X15.2875Y-4.675
X15.2875Y-5.425
X15.2875Y-6.175
X15.2875Y-7.3
T8
X4.9688Y-3.375
X4.9705Y-1.9685
X11.5313Y-1.9688
X11.5328Y-3.3733
T9
X1.3125Y-6.8532
X2.25Y-6.8532
X4.1265Y-7.6
X8.064Y-7.6
X10.875Y-6.1032
X10.9688Y-4.6031
X11.8125Y-6.1032
X11.9063Y-4.6031
X15.4594Y-7.0313
X15.4594Y-7.9688
T10
X1.3125Y-2.25
X1.3125Y-3.
X1.3125Y-4.125
X1.3125Y-4.875
X1.4063Y-7.875
X1.5Y-5.625
X1.5938Y-6.375
X1.7813Y-7.125
X2.0625Y-2.25
X2.0625Y-3.
X2.0625Y-4.125
X2.0625Y-4.875
X2.3438Y-7.875
X2.4313Y-5.625
X2.625Y-6.375
X2.8125Y-2.25
X2.8125Y-3.
X2.8125Y-4.125
X2.8125Y-4.875
X3.Y-7.125
X3.1875Y-5.625
X3.2813Y-7.875
X3.375Y-6.375
X3.5625Y-2.25
X3.5625Y-3.
X3.5625Y-4.125
X3.5625Y-4.875
X3.75Y-7.125
X3.9375Y-5.625
X4.125Y-6.375
X4.3125Y-2.25
X4.3125Y-3.
X4.3125Y-4.125
X4.3125Y-4.875
X4.5Y-7.125
X4.6875Y-5.625
X4.875Y-6.375
X5.0625Y-4.125
X5.0625Y-4.875
X5.25Y-7.125
X5.4375Y-5.625
X5.625Y-6.375
X5.8125Y-4.125
X5.8125Y-4.875
X6.Y-7.125
X6.0938Y-7.875
X6.1875Y-5.625
X6.375Y-6.375
X6.5625Y-4.125
X6.5625Y-4.875
X6.75Y-7.125
X6.9375Y-5.625
X7.125Y-6.375
X7.311Y-4.875
X7.3125Y-4.125
X7.5Y-7.125
X7.6875Y-5.625
X7.875Y-6.375
X8.0625Y-4.125
X8.0625Y-4.875
X8.25Y-7.125
X8.4375Y-5.625
X8.625Y-6.375
X8.8125Y-4.125
X8.8125Y-4.875
X8.8125Y-7.875
X9.Y-7.125
X9.1875Y-5.625
X9.375Y-6.375
X9.5625Y-4.125
X9.5625Y-4.875
X9.5625Y-7.875
X9.75Y-7.125
X9.9375Y-5.625
X10.125Y-6.375
X10.3102Y-4.125
X10.3125Y-4.875
X10.3125Y-7.875
X10.6875Y-5.625
X10.7813Y-7.125
X11.0625Y-4.125
X11.25Y-8.0625
X11.3438Y-6.375
X11.4375Y-4.875
X11.625Y-5.625
X11.812Y-4.1238
X12.Y-7.3125
X12.Y-8.0625
X12.1875Y-2.25
X12.1875Y-3.
X12.75Y-8.0625
X12.9375Y-2.25
X12.9375Y-3.
X12.9375Y-4.125
X12.9375Y-5.625
X12.9375Y-6.375
X12.9375Y-7.125
X12.9376Y-4.875
X13.6875Y-2.25
X13.6875Y-3.
X13.6875Y-4.125
X13.6875Y-4.875
X13.6875Y-5.625
X13.6875Y-6.375
X13.6875Y-7.125
X13.6875Y-7.875
X14.4375Y-2.25
X14.4375Y-3.
X14.4375Y-4.125
X14.4375Y-4.875
X14.4375Y-5.625
X14.4375Y-6.375
X14.4375Y-7.125
X14.4383Y-7.875
X15.1875Y-2.25
X15.1875Y-3.
X15.1875Y-4.125
X15.1875Y-4.875
X15.1875Y-5.625
X15.1875Y-6.375
X15.1875Y-7.5
T11
X1.3125Y-7.4532
X2.25Y-7.4532
X4.1265Y-8.2
X8.064Y-8.2
X10.875Y-6.7032
X10.9688Y-5.2031
X11.8125Y-6.7032
X11.9063Y-5.2031
X14.8594Y-7.0313
X14.8594Y-7.9688
T12
X4.3125Y-3.5625
X8.248Y-3.5625
X12.1876Y-3.5625
X12.3751Y-6.
T0
M30
